# xmcd
#
# Track frame offsets:
#	167
#	11895
#	26973
#	51549
#	66767
#	86087
#	107351
#	128078
#	163423
#	174701
#	192540
#	204586
#	222755
#	239686
#	253748
#	275029
#
# Disc length: 3873
#
# Revision: 2
# Processed by: cddbd v1.5.1PL0 Copyright (c) Steve Scherf et al.
# Submitted via: EasyCDDAExtractor 4.5.0.2
# Normalized: r0:TRMNUM;r1:DSETVAR1,TDELIM( - )
#
DISCID=000f1f10
DTITLE=Various Artist - L'Odyssée Du Blues
DYEAR=2003
DGENRE=Blues
TTITLE0=John  Lee Hooker - Talk About Your Baby
TTITLE1=Albert King - Laundromat Blues
TTITLE2=King Curtis and Champion Jack Dupree - Everything's gonna be alright
TTITLE3=Ray Charles - Sinner's Prayer
TTITLE4=Buddy Guy - T-Bone Shuffle
TTITLE5=Lavern Baker - Back Water Blues
TTITLE6=Olu Dara - Rain Shower
TTITLE7=John Coltrane - Blues To Elvin
TTITLE8=Freddie King - Hideaway
TTITLE9=Champion Jack Dupree - Bad Blood
TTITLE10=T-Bone Walker - Evenin'
TTITLE11=Madeleine Peyroux - Hey Sweet Man
TTITLE12=Joe Turner - Roll 'em Pete
TTITLE13=Blind Willie Mctell - Dying Crapshooter's Blues
TTITLE14=Jay Mcshann - Confessin' The Blues
TTITLE15=Olu Dara - Strange Things Happens Everyday
EXTD=Classic and rare Recordings From the Atlantic, Fantasy and Vanguard Vaults.
EXTT0=
EXTT1=
EXTT2=
EXTT3=
EXTT4=
EXTT5=
EXTT6=
EXTT7=
EXTT8=
EXTT9=
EXTT10=
EXTT11=
EXTT12=
EXTT13=
EXTT14=
EXTT15=
PLAYORDER=
